<svg width="19" height="18" viewBox="0 0 19 18" fill="none" xmlns="http://www.w3.org/2000/svg">
<path d="M6.6874 0C6.6874 4.75012 4.12034 8.99985 0.5 8.99985C4.12034 8.99985 6.6874 13.2499 6.6874 17.9997C6.6874 13.2499 9.25445 8.99985 12.8748 8.99985C9.25445 8.99985 6.6874 4.75012 6.6874 0Z" fill="white"/>
<path d="M13.9998 9C13.9998 11.3754 12.7167 13.4999 10.9059 13.4999C12.7167 13.4999 13.9998 15.6251 13.9998 17.9999C13.9998 15.6251 15.2829 13.4999 17.0936 13.4999C15.2829 13.4999 13.9998 11.3754 13.9998 9Z" fill="white"/>
<path d="M15.4062 0C15.4062 2.37506 14.1231 4.49993 12.3123 4.49993C14.1228 4.49993 15.4062 6.62509 15.4062 8.99985C15.4062 6.62509 16.6892 4.49993 18.5 4.49993C16.6892 4.49993 15.4062 2.37506 15.4062 0Z" fill="white"/>
</svg>
