<svg width="18" height="18" viewBox="0 0 18 18" fill="none" xmlns="http://www.w3.org/2000/svg">
<path d="M6.1874 0C6.1874 4.75012 3.62034 8.99985 0 8.99985C3.62034 8.99985 6.1874 13.2499 6.1874 17.9997C6.1874 13.2499 8.75445 8.99985 12.3748 8.99985C8.75445 8.99985 6.1874 4.75012 6.1874 0Z" fill="white"/>
<path d="M13.4998 9C13.4998 11.3754 12.2167 13.4999 10.4059 13.4999C12.2167 13.4999 13.4998 15.6251 13.4998 17.9999C13.4998 15.6251 14.7829 13.4999 16.5936 13.4999C14.7829 13.4999 13.4998 11.3754 13.4998 9Z" fill="white"/>
<path d="M14.9061 0C14.9061 2.37506 13.6231 4.49993 11.8123 4.49993C13.6228 4.49993 14.9061 6.62509 14.9061 8.99985C14.9061 6.62509 16.1892 4.49993 18 4.49993C16.1892 4.49993 14.9061 2.37506 14.9061 0Z" fill="white"/>
</svg>
