<svg width="19" height="18" viewBox="0 0 19 18" fill="none" xmlns="http://www.w3.org/2000/svg">
<circle cx="8.36945" cy="9.17864" r="6.82805" fill="#6889FF"/>
<path d="M9.05232 6.44745C9.05232 6.07035 8.74662 5.76465 8.36952 5.76465C7.99241 5.76465 7.68671 6.07035 7.68671 6.44745L7.68671 8.49587H5.6383C5.26119 8.49587 4.95549 8.80157 4.95549 9.17868C4.95549 9.55578 5.26119 9.86148 5.6383 9.86148H7.68671L7.68671 11.9099C7.68671 12.287 7.99241 12.5927 8.36952 12.5927C8.74662 12.5927 9.05232 12.287 9.05232 11.9099L9.05232 9.86148H11.1007C11.4778 9.86148 11.7835 9.55578 11.7835 9.17868C11.7835 8.80157 11.4778 8.49587 11.1007 8.49587H9.05232L9.05232 6.44745Z" fill="#B5B2FF"/>
</svg>
