<svg width="19" height="18" viewBox="0 0 19 18" fill="none" xmlns="http://www.w3.org/2000/svg">
<circle cx="8.68221" cy="8.46966" r="6.82805" fill="#6889FF"/>
<path d="M9.36507 5.73847C9.36507 5.36137 9.05937 5.05566 8.68227 5.05566C8.30517 5.05566 7.99946 5.36137 7.99946 5.73847L7.99946 7.78689H5.95105C5.57394 7.78689 5.26824 8.09259 5.26824 8.46969C5.26824 8.84679 5.57394 9.1525 5.95105 9.1525H7.99946L7.99946 11.2009C7.99946 11.578 8.30517 11.8837 8.68227 11.8837C9.05937 11.8837 9.36507 11.578 9.36507 11.2009L9.36507 9.1525H11.4135C11.7906 9.1525 12.0963 8.84679 12.0963 8.46969C12.0963 8.09259 11.7906 7.78689 11.4135 7.78689H9.36507L9.36507 5.73847Z" fill="#B5B2FF"/>
</svg>
