<svg width="19" height="18" viewBox="0 0 19 18" fill="none" xmlns="http://www.w3.org/2000/svg">
<circle cx="8.36936" cy="8.93059" r="6.82805" fill="#6889FF"/>
<path d="M9.05223 6.19941C9.05223 5.8223 8.74653 5.5166 8.36943 5.5166C7.99232 5.5166 7.68662 5.8223 7.68662 6.19941L7.68662 8.24782H5.6382C5.2611 8.24782 4.9554 8.55353 4.9554 8.93063C4.9554 9.30773 5.2611 9.61343 5.6382 9.61343H7.68662L7.68662 11.6619C7.68662 12.039 7.99232 12.3447 8.36943 12.3447C8.74653 12.3447 9.05223 12.039 9.05223 11.6619L9.05223 9.61343H11.1006C11.4778 9.61343 11.7835 9.30773 11.7835 8.93063C11.7835 8.55353 11.4778 8.24782 11.1006 8.24782H9.05223L9.05223 6.19941Z" fill="#B5B2FF"/>
</svg>
