<svg width="19" height="18" viewBox="0 0 19 18" fill="none" xmlns="http://www.w3.org/2000/svg">
<circle cx="8.36945" cy="8.83489" r="6.82805" fill="#6889FF"/>
<path d="M9.05232 6.1037C9.05232 5.7266 8.74662 5.4209 8.36952 5.4209C7.99241 5.4209 7.68671 5.7266 7.68671 6.1037L7.68671 8.15212H5.6383C5.26119 8.15212 4.95549 8.45782 4.95549 8.83493C4.95549 9.21203 5.26119 9.51773 5.6383 9.51773H7.68671L7.68671 11.5661C7.68671 11.9432 7.99241 12.249 8.36952 12.249C8.74662 12.249 9.05232 11.9433 9.05232 11.5661L9.05232 9.51773H11.1007C11.4778 9.51773 11.7835 9.21203 11.7835 8.83493C11.7835 8.45782 11.4778 8.15212 11.1007 8.15212H9.05232L9.05232 6.1037Z" fill="#B5B2FF"/>
</svg>
