<svg width="20" height="18" viewBox="0 0 20 18" fill="none" xmlns="http://www.w3.org/2000/svg">
<circle cx="9.18615" cy="8.46966" r="6.82805" fill="#6889FF"/>
<path d="M9.86901 5.73847C9.86901 5.36137 9.56331 5.05566 9.18621 5.05566C8.8091 5.05566 8.5034 5.36137 8.5034 5.73847L8.5034 7.78689H6.45499C6.07788 7.78689 5.77218 8.09259 5.77218 8.46969C5.77218 8.84679 6.07788 9.1525 6.45499 9.1525H8.5034L8.5034 11.2009C8.5034 11.578 8.8091 11.8837 9.18621 11.8837C9.56331 11.8837 9.86901 11.578 9.86901 11.2009L9.86901 9.1525H11.9174C12.2945 9.1525 12.6002 8.84679 12.6002 8.46969C12.6002 8.09259 12.2945 7.78689 11.9174 7.78689H9.86901L9.86901 5.73847Z" fill="#B5B2FF"/>
</svg>
