<svg width="18" height="19" viewBox="0 0 18 19" fill="none" xmlns="http://www.w3.org/2000/svg">
<path fill-rule="evenodd" clip-rule="evenodd" d="M9.25485 3.73975C9.65077 3.73975 9.97173 4.0607 9.97173 4.45662L9.97172 14.4928C9.97172 14.8887 9.65077 15.2097 9.25485 15.2097C8.85894 15.2097 8.53798 14.8887 8.53798 14.4928L8.53798 4.45662C8.53798 4.0607 8.85894 3.73975 9.25485 3.73975Z" fill="#8E8C95"/>
<path fill-rule="evenodd" clip-rule="evenodd" d="M3.51988 9.4742C3.51988 9.07828 3.84084 8.75732 4.23675 8.75732H14.273C14.6689 8.75732 14.9898 9.07828 14.9898 9.4742C14.9898 9.87011 14.6689 10.1911 14.273 10.1911H4.23675C3.84084 10.1911 3.51988 9.87011 3.51988 9.4742Z" fill="#5B5966"/>
</svg>
