<svg width="18" height="18" viewBox="0 0 18 18" fill="none" xmlns="http://www.w3.org/2000/svg">
<path fill-rule="evenodd" clip-rule="evenodd" d="M9.23522 3.64404C9.63113 3.64404 9.95209 3.965 9.95209 4.36091L9.95209 14.3971C9.95209 14.793 9.63113 15.114 9.23522 15.114C8.8393 15.114 8.51834 14.793 8.51834 14.3971L8.51834 4.36091C8.51834 3.965 8.8393 3.64404 9.23522 3.64404Z" fill="#8E8C95"/>
<path fill-rule="evenodd" clip-rule="evenodd" d="M3.50024 9.37849C3.50024 8.98258 3.8212 8.66162 4.21712 8.66162H14.2533C14.6492 8.66162 14.9702 8.98258 14.9702 9.37849C14.9702 9.77441 14.6492 10.0954 14.2533 10.0954H4.21712C3.8212 10.0954 3.50024 9.77441 3.50024 9.37849Z" fill="#5B5966"/>
</svg>
