<svg width="18" height="18" viewBox="0 0 18 18" fill="none" xmlns="http://www.w3.org/2000/svg">
<path fill-rule="evenodd" clip-rule="evenodd" d="M9.23522 2.95459C9.63113 2.95459 9.95209 3.27554 9.95209 3.67146L9.95209 13.7077C9.95209 14.1036 9.63113 14.4245 9.23522 14.4245C8.8393 14.4245 8.51834 14.1036 8.51834 13.7077L8.51834 3.67146C8.51834 3.27554 8.8393 2.95459 9.23522 2.95459Z" fill="#8E8C95"/>
<path fill-rule="evenodd" clip-rule="evenodd" d="M3.50024 8.68904C3.50024 8.29312 3.8212 7.97217 4.21712 7.97217H14.2533C14.6492 7.97217 14.9702 8.29312 14.9702 8.68904C14.9702 9.08496 14.6492 9.40591 14.2533 9.40591H4.21712C3.8212 9.40591 3.50024 9.08496 3.50024 8.68904Z" fill="#5B5966"/>
</svg>
