<svg width="18" height="18" viewBox="0 0 18 18" fill="none" xmlns="http://www.w3.org/2000/svg">
<path fill-rule="evenodd" clip-rule="evenodd" d="M9.23522 3.26514C9.63113 3.26514 9.95209 3.58609 9.95209 3.98201L9.95209 14.0182C9.95209 14.4141 9.63113 14.7351 9.23522 14.7351C8.8393 14.7351 8.51834 14.4141 8.51834 14.0182L8.51834 3.98201C8.51834 3.58609 8.8393 3.26514 9.23522 3.26514Z" fill="#8E8C95"/>
<path fill-rule="evenodd" clip-rule="evenodd" d="M3.50024 8.99959C3.50024 8.60367 3.8212 8.28271 4.21712 8.28271H14.2533C14.6492 8.28271 14.9702 8.60367 14.9702 8.99959C14.9702 9.3955 14.6492 9.71646 14.2533 9.71646H4.21712C3.8212 9.71646 3.50024 9.3955 3.50024 8.99959Z" fill="#5B5966"/>
</svg>
