<svg width="18" height="18" viewBox="0 0 18 18" fill="none" xmlns="http://www.w3.org/2000/svg">
<path fill-rule="evenodd" clip-rule="evenodd" d="M9.23522 3.57568C9.63113 3.57568 9.95209 3.89664 9.95209 4.29255L9.95209 14.3288C9.95209 14.7247 9.63113 15.0456 9.23522 15.0456C8.8393 15.0456 8.51834 14.7247 8.51834 14.3288L8.51834 4.29255C8.51834 3.89664 8.8393 3.57568 9.23522 3.57568Z" fill="#8E8C95"/>
<path fill-rule="evenodd" clip-rule="evenodd" d="M3.50024 9.31013C3.50024 8.91422 3.8212 8.59326 4.21712 8.59326H14.2533C14.6492 8.59326 14.9702 8.91422 14.9702 9.31013C14.9702 9.70605 14.6492 10.027 14.2533 10.027H4.21712C3.8212 10.027 3.50024 9.70605 3.50024 9.31013Z" fill="#5B5966"/>
</svg>
