<svg width="18" height="18" viewBox="0 0 18 18" fill="none" xmlns="http://www.w3.org/2000/svg">
<path fill-rule="evenodd" clip-rule="evenodd" d="M9.23522 2.98779C9.63113 2.98779 9.95209 3.30875 9.95209 3.70466L9.95209 13.7409C9.95209 14.1368 9.63113 14.4577 9.23522 14.4577C8.8393 14.4577 8.51834 14.1368 8.51834 13.7409L8.51834 3.70466C8.51834 3.30875 8.8393 2.98779 9.23522 2.98779Z" fill="#8E8C95"/>
<path fill-rule="evenodd" clip-rule="evenodd" d="M3.50024 8.72224C3.50024 8.32633 3.8212 8.00537 4.21712 8.00537H14.2533C14.6492 8.00537 14.9702 8.32633 14.9702 8.72224C14.9702 9.11816 14.6492 9.43911 14.2533 9.43911H4.21712C3.8212 9.43911 3.50024 9.11816 3.50024 8.72224Z" fill="#5B5966"/>
</svg>
