<svg width="18" height="18" viewBox="0 0 18 18" fill="none" xmlns="http://www.w3.org/2000/svg">
<path fill-rule="evenodd" clip-rule="evenodd" d="M9.23522 3.29834C9.63113 3.29834 9.95209 3.61929 9.95209 4.01521L9.95209 14.0514C9.95209 14.4473 9.63113 14.7683 9.23522 14.7683C8.8393 14.7683 8.51834 14.4473 8.51834 14.0514L8.51834 4.01521C8.51834 3.61929 8.8393 3.29834 9.23522 3.29834Z" fill="#8E8C95"/>
<path fill-rule="evenodd" clip-rule="evenodd" d="M3.50024 9.03279C3.50024 8.63687 3.8212 8.31592 4.21712 8.31592H14.2533C14.6492 8.31592 14.9702 8.63687 14.9702 9.03279C14.9702 9.42871 14.6492 9.74966 14.2533 9.74966H4.21712C3.8212 9.74966 3.50024 9.42871 3.50024 9.03279Z" fill="#5B5966"/>
</svg>
