<svg width="18" height="18" viewBox="0 0 18 18" fill="none" xmlns="http://www.w3.org/2000/svg">
<path fill-rule="evenodd" clip-rule="evenodd" d="M9.23522 3.60889C9.63113 3.60889 9.95209 3.92984 9.95209 4.32576L9.95209 14.362C9.95209 14.7579 9.63113 15.0788 9.23522 15.0788C8.8393 15.0788 8.51834 14.7579 8.51834 14.362L8.51834 4.32576C8.51834 3.92984 8.8393 3.60889 9.23522 3.60889Z" fill="#8E8C95"/>
<path fill-rule="evenodd" clip-rule="evenodd" d="M3.50024 9.34334C3.50024 8.94742 3.8212 8.62646 4.21712 8.62646H14.2533C14.6492 8.62646 14.9702 8.94742 14.9702 9.34334C14.9702 9.73925 14.6492 10.0602 14.2533 10.0602H4.21712C3.8212 10.0602 3.50024 9.73925 3.50024 9.34334Z" fill="#5B5966"/>
</svg>
