<svg width="18" height="18" viewBox="0 0 18 18" fill="none" xmlns="http://www.w3.org/2000/svg">
<path fill-rule="evenodd" clip-rule="evenodd" d="M9.23522 2.91943C9.63113 2.91943 9.95209 3.24039 9.95209 3.6363L9.95209 13.6725C9.95209 14.0684 9.63113 14.3894 9.23522 14.3894C8.8393 14.3894 8.51834 14.0684 8.51834 13.6725L8.51834 3.6363C8.51834 3.24039 8.8393 2.91943 9.23522 2.91943Z" fill="#8E8C95"/>
<path fill-rule="evenodd" clip-rule="evenodd" d="M3.50024 8.65388C3.50024 8.25797 3.8212 7.93701 4.21712 7.93701H14.2533C14.6492 7.93701 14.9702 8.25797 14.9702 8.65388C14.9702 9.0498 14.6492 9.37075 14.2533 9.37075H4.21712C3.8212 9.37075 3.50024 9.0498 3.50024 8.65388Z" fill="#5B5966"/>
</svg>
