<svg width="26" height="24" viewBox="0 0 26 24" fill="none" xmlns="http://www.w3.org/2000/svg">
<path fill-rule="evenodd" clip-rule="evenodd" d="M3.37561 11.7989C3.37561 11.258 3.81412 10.8194 4.35505 10.8194L19.5363 10.8194C20.0773 10.8194 20.5158 11.258 20.5158 11.7989C20.5158 12.3398 20.0773 12.7783 19.5363 12.7783L4.35505 12.7783C3.81412 12.7783 3.37561 12.3398 3.37561 11.7989Z" fill="#B5B2FF"/>
<path fill-rule="evenodd" clip-rule="evenodd" d="M13.4569 18.8577C13.0744 18.4752 13.0744 17.855 13.4569 17.4725L19.1307 11.7987L13.4569 6.12496C13.0744 5.74246 13.0744 5.12232 13.4569 4.73982C13.8394 4.35733 14.4595 4.35733 14.842 4.73982L20.5158 10.4136C21.2808 11.1786 21.2808 12.4189 20.5158 13.1839L14.842 18.8577C14.4595 19.2402 13.8394 19.2402 13.4569 18.8577Z" fill="#6889FF"/>
</svg>
