<svg width="31" height="29" viewBox="0 0 31 29" fill="none" xmlns="http://www.w3.org/2000/svg">
<path fill-rule="evenodd" clip-rule="evenodd" d="M4.06434 14.7875C4.06434 14.1387 4.59035 13.6127 5.23921 13.6127L23.4497 13.6127C24.0986 13.6127 24.6246 14.1387 24.6246 14.7875C24.6246 15.4364 24.0986 15.9624 23.4497 15.9624L5.23921 15.9624C4.59035 15.9624 4.06434 15.4364 4.06434 14.7875Z" fill="#B5B2FF"/>
<path fill-rule="evenodd" clip-rule="evenodd" d="M16.1571 23.255C15.6983 22.7962 15.6983 22.0523 16.1571 21.5935L22.963 14.7876L16.1571 7.9817C15.6983 7.52289 15.6983 6.779 16.1571 6.32019C16.616 5.86137 17.3598 5.86137 17.8187 6.32019L24.6246 13.1261C25.5422 14.0437 25.5422 15.5315 24.6246 16.4491L17.8187 23.255C17.3598 23.7138 16.616 23.7138 16.1571 23.255Z" fill="#6889FF"/>
</svg>
