<svg width="25" height="24" viewBox="0 0 25 24" fill="none" xmlns="http://www.w3.org/2000/svg">
<path fill-rule="evenodd" clip-rule="evenodd" d="M2.96228 11.7989C2.96228 11.258 3.40079 10.8194 3.94172 10.8194L19.123 10.8194C19.6639 10.8194 20.1025 11.258 20.1025 11.7989C20.1025 12.3398 19.6639 12.7783 19.123 12.7783L3.94172 12.7783C3.40079 12.7783 2.96228 12.3398 2.96228 11.7989Z" fill="#B5B2FF"/>
<path fill-rule="evenodd" clip-rule="evenodd" d="M13.0435 18.8577C12.661 18.4752 12.661 17.855 13.0435 17.4725L18.7173 11.7987L13.0435 6.12496C12.661 5.74246 12.661 5.12232 13.0435 4.73982C13.426 4.35733 14.0462 4.35733 14.4287 4.73982L20.1024 10.4136C20.8674 11.1786 20.8674 12.4189 20.1024 13.1839L14.4287 18.8577C14.0462 19.2402 13.426 19.2402 13.0435 18.8577Z" fill="#6889FF"/>
</svg>
