<svg width="30" height="28" viewBox="0 0 30 28" fill="none" xmlns="http://www.w3.org/2000/svg">
<path fill-rule="evenodd" clip-rule="evenodd" d="M3.60406 14.2875C3.60406 13.6387 4.13007 13.1127 4.77893 13.1127L22.9894 13.1127C23.6383 13.1127 24.1643 13.6387 24.1643 14.2875C24.1643 14.9364 23.6383 15.4624 22.9894 15.4624L4.77893 15.4624C4.13007 15.4624 3.60406 14.9364 3.60406 14.2875Z" fill="#B5B2FF"/>
<path fill-rule="evenodd" clip-rule="evenodd" d="M15.6968 22.755C15.238 22.2962 15.238 21.5523 15.6968 21.0935L22.5027 14.2876L15.6968 7.4817C15.238 7.02289 15.238 6.279 15.6968 5.82019C16.1556 5.36137 16.8995 5.36137 17.3584 5.82019L24.1642 12.6261C25.0819 13.5437 25.0819 15.0315 24.1642 15.9491L17.3584 22.755C16.8995 23.2138 16.1556 23.2138 15.6968 22.755Z" fill="#6889FF"/>
</svg>
