<svg width="41" height="40" viewBox="0 0 41 40" fill="none" xmlns="http://www.w3.org/2000/svg">
<path d="M3.97596 12.3972L8.75357 5.92429C9.67669 4.67362 11.1388 3.93555 12.6932 3.93555H28.4242C29.9786 3.93555 31.4407 4.67362 32.3638 5.92429L37.1414 12.3972C38.437 14.1524 38.4151 16.553 37.0877 18.2843L24.4447 34.7752C22.4847 37.3317 18.6327 37.3317 16.6727 34.7752L4.02967 18.2843C2.70234 16.553 2.68044 14.1524 3.97596 12.3972Z" fill="#6889FF"/>
<path d="M38.0979 15.3609H3.01917C3.00731 14.3215 3.32554 13.2784 3.97537 12.3977V12.3977L8.75338 5.92429C9.6765 4.67362 11.1386 3.93555 12.6931 3.93555H28.424C29.9784 3.93555 31.4405 4.67362 32.3636 5.92429L37.1413 12.3972L37.1429 12.3994C37.7919 13.2797 38.1097 14.3221 38.0979 15.3609Z" fill="#B5B2FF"/>
</svg>
