<svg width="40" height="40" viewBox="0 0 40 40" fill="none" xmlns="http://www.w3.org/2000/svg">
<path d="M3.35379 12.3972L8.1314 5.92429C9.05451 4.67362 10.5166 3.93555 12.0711 3.93555H27.802C29.3564 3.93555 30.8185 4.67362 31.7417 5.92429L36.5193 12.3972C37.8148 14.1524 37.7929 16.553 36.4656 18.2843L23.8225 34.7752C21.8625 37.3317 18.0105 37.3317 16.0506 34.7752L3.40749 18.2843C2.08016 16.553 2.05826 14.1524 3.35379 12.3972Z" fill="#6889FF"/>
<path d="M37.4757 15.3609H2.39699C2.38513 14.3215 2.70336 13.2784 3.35319 12.3977V12.3977L8.1312 5.92429C9.05431 4.67362 10.5164 3.93555 12.0709 3.93555H27.8018C29.3562 3.93555 30.8183 4.67362 31.7415 5.92429L36.5191 12.3972L36.5207 12.3994C37.1697 13.2797 37.4875 14.3221 37.4757 15.3609Z" fill="#B5B2FF"/>
</svg>
