<svg width="21" height="21" viewBox="0 0 21 21" fill="none" xmlns="http://www.w3.org/2000/svg">
<path fill-rule="evenodd" clip-rule="evenodd" d="M1.73651 9.69393C1.73651 9.01369 2.02523 8.36542 2.53084 7.91037L8.12975 2.87135C9.04231 2.05005 10.4276 2.05005 11.3402 2.87135L16.9391 7.91037C17.4447 8.36542 17.7334 9.01369 17.7334 9.69393V15.8239C17.7334 17.1491 16.6591 18.2234 15.3339 18.2234H12.9343L12.9299 18.2234H6.54004L6.53558 18.2234H4.13604C2.81082 18.2234 1.73651 17.1491 1.73651 15.8239V9.69393Z" fill="#6889FF"/>
<path d="M7.33542 13.4244C7.33542 12.5409 8.05162 11.8247 8.93511 11.8247H10.5348C11.4183 11.8247 12.1345 12.5409 12.1345 13.4244V18.2235H7.33542V13.4244Z" fill="#B5B2FF"/>
</svg>
