<svg width="21" height="21" viewBox="0 0 21 21" fill="none" xmlns="http://www.w3.org/2000/svg">
<path fill-rule="evenodd" clip-rule="evenodd" d="M1.67532 9.30037C1.67532 8.62014 1.96404 7.97187 2.46965 7.51681L8.06857 2.47779C8.98112 1.65649 10.3664 1.65649 11.279 2.47779L16.8779 7.51681C17.3835 7.97186 17.6722 8.62014 17.6722 9.30037V15.4303C17.6722 16.7555 16.5979 17.8298 15.2727 17.8298H12.8731L12.8687 17.8298H6.47886L6.47439 17.8298H4.07486C2.74963 17.8298 1.67532 16.7555 1.67532 15.4303V9.30037Z" fill="#5B5966"/>
<path d="M7.27417 13.0308C7.27417 12.1474 7.99038 11.4312 8.87386 11.4312H10.4735C11.357 11.4312 12.0732 12.1474 12.0732 13.0308V17.8299H7.27417V13.0308Z" fill="#8E8C95"/>
</svg>
