<svg width="21" height="21" viewBox="0 0 21 21" fill="none" xmlns="http://www.w3.org/2000/svg">
<path fill-rule="evenodd" clip-rule="evenodd" d="M1.67532 9.71248C1.67532 9.03225 1.96404 8.38397 2.46965 7.92892L8.06857 2.8899C8.98112 2.0686 10.3664 2.0686 11.279 2.8899L16.8779 7.92892C17.3835 8.38397 17.6722 9.03225 17.6722 9.71248V15.8424C17.6722 17.1676 16.5979 18.242 15.2727 18.242H12.8731L12.8687 18.2419H6.47886L6.47439 18.242H4.07486C2.74963 18.242 1.67532 17.1676 1.67532 15.8424V9.71248Z" fill="#5B5966"/>
<path d="M7.27417 13.443C7.27417 12.5595 7.99038 11.8433 8.87386 11.8433H10.4735C11.357 11.8433 12.0732 12.5595 12.0732 13.443V18.242H7.27417V13.443Z" fill="#8E8C95"/>
</svg>
