<svg width="22" height="21" viewBox="0 0 22 21" fill="none" xmlns="http://www.w3.org/2000/svg">
<path fill-rule="evenodd" clip-rule="evenodd" d="M2.52722 9.40242C2.52722 8.72219 2.81594 8.07392 3.32155 7.61886L8.92046 2.57984C9.83302 1.75854 11.2183 1.75854 12.1309 2.57984L17.7298 7.61886C18.2354 8.07392 18.5241 8.72219 18.5241 9.40242V15.5324C18.5241 16.8576 17.4498 17.9319 16.1246 17.9319H13.725L13.7206 17.9319H7.33076L7.32629 17.9319H4.92676C3.60153 17.9319 2.52722 16.8576 2.52722 15.5324V9.40242Z" fill="#6889FF"/>
<path d="M8.12613 13.1329C8.12613 12.2494 8.84233 11.5332 9.72582 11.5332H11.3255C12.209 11.5332 12.9252 12.2494 12.9252 13.1329V17.932H8.12613V13.1329Z" fill="#B5B2FF"/>
</svg>
