<svg width="22" height="22" viewBox="0 0 22 22" fill="none" xmlns="http://www.w3.org/2000/svg">
<path fill-rule="evenodd" clip-rule="evenodd" d="M2.52722 10.0587C2.52722 9.37844 2.81594 8.73017 3.32155 8.27511L8.92046 3.23609C9.83302 2.41479 11.2183 2.41479 12.1309 3.23609L17.7298 8.27511C18.2354 8.73017 18.5241 9.37844 18.5241 10.0587V16.1886C18.5241 17.5138 17.4498 18.5881 16.1246 18.5881H13.725L13.7206 18.5881H7.33076L7.32629 18.5881H4.92676C3.60153 18.5881 2.52722 17.5138 2.52722 16.1886V10.0587Z" fill="#6889FF"/>
<path d="M8.12613 13.7891C8.12613 12.9057 8.84233 12.1895 9.72582 12.1895H11.3255C12.209 12.1895 12.9252 12.9057 12.9252 13.7891V18.5882H8.12613V13.7891Z" fill="#B5B2FF"/>
</svg>
