<svg width="21" height="21" viewBox="0 0 21 21" fill="none" xmlns="http://www.w3.org/2000/svg">
<path fill-rule="evenodd" clip-rule="evenodd" d="M1.67532 9.64412C1.67532 8.96389 1.96404 8.31562 2.46965 7.86056L8.06857 2.82154C8.98112 2.00024 10.3664 2.00024 11.279 2.82154L16.8779 7.86056C17.3835 8.31561 17.6722 8.96389 17.6722 9.64412V15.7741C17.6722 17.0993 16.5979 18.1736 15.2727 18.1736H12.8731L12.8687 18.1736H6.47886L6.47439 18.1736H4.07486C2.74963 18.1736 1.67532 17.0993 1.67532 15.7741V9.64412Z" fill="#5B5966"/>
<path d="M7.27417 13.3746C7.27417 12.4911 7.99038 11.7749 8.87386 11.7749H10.4735C11.357 11.7749 12.0732 12.4911 12.0732 13.3746V18.1737H7.27417V13.3746Z" fill="#8E8C95"/>
</svg>
