<svg width="22" height="21" viewBox="0 0 22 21" fill="none" xmlns="http://www.w3.org/2000/svg">
<path fill-rule="evenodd" clip-rule="evenodd" d="M2.52713 9.46443C2.52713 8.7842 2.81585 8.13593 3.32146 7.68087L8.92037 2.64185C9.83293 1.82055 11.2182 1.82055 12.1308 2.64185L17.7297 7.68087C18.2353 8.13593 18.524 8.7842 18.524 9.46443V15.5944C18.524 16.9196 17.4497 17.9939 16.1245 17.9939H13.725L13.7205 17.9939H7.33066L7.3262 17.9939H4.92666C3.60144 17.9939 2.52713 16.9196 2.52713 15.5944V9.46443Z" fill="#5B5966"/>
<path d="M8.12598 13.1949C8.12598 12.3114 8.84218 11.5952 9.72567 11.5952H11.3254C12.2088 11.5952 12.925 12.3114 12.925 13.1949V17.994H8.12598V13.1949Z" fill="#8E8C95"/>
</svg>
