<svg width="21" height="21" viewBox="0 0 21 21" fill="none" xmlns="http://www.w3.org/2000/svg">
<path fill-rule="evenodd" clip-rule="evenodd" d="M1.67532 9.33357C1.67532 8.65334 1.96404 8.00507 2.46965 7.55002L8.06857 2.51099C8.98112 1.6897 10.3664 1.68969 11.279 2.51099L16.8779 7.55001C17.3835 8.00507 17.6722 8.65334 17.6722 9.33357V15.4635C17.6722 16.7887 16.5979 17.863 15.2727 17.863H12.8731L12.8687 17.863H6.47886L6.47439 17.863H4.07486C2.74963 17.863 1.67532 16.7887 1.67532 15.4635V9.33357Z" fill="#5B5966"/>
<path d="M7.27417 13.064C7.27417 12.1806 7.99038 11.4644 8.87386 11.4644H10.4735C11.357 11.4644 12.0732 12.1806 12.0732 13.064V17.8631H7.27417V13.064Z" fill="#8E8C95"/>
</svg>
