<svg width="21" height="22" viewBox="0 0 21 22" fill="none" xmlns="http://www.w3.org/2000/svg">
<path fill-rule="evenodd" clip-rule="evenodd" d="M1.67532 9.98982C1.67532 9.30959 1.96404 8.66132 2.46965 8.20627L8.06857 3.16724C8.98112 2.34595 10.3664 2.34594 11.279 3.16724L16.8779 8.20626C17.3835 8.66132 17.6722 9.30959 17.6722 9.98982V16.1198C17.6722 17.445 16.5979 18.5193 15.2727 18.5193H12.8731L12.8687 18.5193H6.47886L6.47439 18.5193H4.07486C2.74963 18.5193 1.67532 17.445 1.67532 16.1198V9.98982Z" fill="#5B5966"/>
<path d="M7.27417 13.7203C7.27417 12.8368 7.99038 12.1206 8.87386 12.1206H10.4735C11.357 12.1206 12.0732 12.8368 12.0732 13.7203V18.5194H7.27417V13.7203Z" fill="#8E8C95"/>
</svg>
