<svg width="21" height="22" viewBox="0 0 21 22" fill="none" xmlns="http://www.w3.org/2000/svg">
<path fill-rule="evenodd" clip-rule="evenodd" d="M1.67532 10.023C1.67532 9.34279 1.96404 8.69452 2.46965 8.23947L8.06857 3.20045C8.98112 2.37915 10.3664 2.37915 11.279 3.20045L16.8779 8.23947C17.3835 8.69452 17.6722 9.34279 17.6722 10.023V16.153C17.6722 17.4782 16.5979 18.5525 15.2727 18.5525H12.8731L12.8687 18.5525H6.47886L6.47439 18.5525H4.07486C2.74963 18.5525 1.67532 17.4782 1.67532 16.153V10.023Z" fill="#5B5966"/>
<path d="M7.27417 13.7535C7.27417 12.87 7.99038 12.1538 8.87386 12.1538H10.4735C11.357 12.1538 12.0732 12.87 12.0732 13.7535V18.5526H7.27417V13.7535Z" fill="#8E8C95"/>
</svg>
