<svg width="21" height="21" viewBox="0 0 21 21" fill="none" xmlns="http://www.w3.org/2000/svg">
<path fill-rule="evenodd" clip-rule="evenodd" d="M1.67532 9.67928C1.67532 8.99904 1.96404 8.35077 2.46965 7.89572L8.06857 2.8567C8.98112 2.0354 10.3664 2.0354 11.279 2.8567L16.8779 7.89572C17.3835 8.35077 17.6722 8.99904 17.6722 9.67928V15.8092C17.6722 17.1344 16.5979 18.2088 15.2727 18.2088H12.8731L12.8687 18.2087H6.47886L6.47439 18.2088H4.07486C2.74963 18.2088 1.67532 17.1344 1.67532 15.8092V9.67928Z" fill="#5B5966"/>
<path d="M7.27417 13.4097C7.27417 12.5263 7.99038 11.8101 8.87386 11.8101H10.4735C11.357 11.8101 12.0732 12.5263 12.0732 13.4097V18.2088H7.27417V13.4097Z" fill="#8E8C95"/>
</svg>
