<svg width="21" height="21" viewBox="0 0 21 21" fill="none" xmlns="http://www.w3.org/2000/svg">
<path fill-rule="evenodd" clip-rule="evenodd" d="M2.23259 9.69393C2.23259 9.01369 2.5213 8.36542 3.02692 7.91037L8.62583 2.87135C9.53838 2.05005 10.9237 2.05005 11.8362 2.87135L17.4351 7.91037C17.9408 8.36542 18.2295 9.01369 18.2295 9.69393V15.8239C18.2295 17.1491 17.1552 18.2234 15.8299 18.2234H13.4304L13.4259 18.2234H7.03612L7.03165 18.2234H4.63212C3.30689 18.2234 2.23259 17.1491 2.23259 15.8239V9.69393Z" fill="#6889FF"/>
<path d="M7.83149 13.4244C7.83149 12.5409 8.54769 11.8247 9.43118 11.8247H11.0309C11.9144 11.8247 12.6306 12.5409 12.6306 13.4244V18.2235H7.83149V13.4244Z" fill="#B5B2FF"/>
</svg>
