<svg width="22" height="21" viewBox="0 0 22 21" fill="none" xmlns="http://www.w3.org/2000/svg">
<path fill-rule="evenodd" clip-rule="evenodd" d="M2.52713 9.15438C2.52713 8.47414 2.81585 7.82587 3.32146 7.37082L8.92037 2.3318C9.83293 1.5105 11.2182 1.5105 12.1308 2.33179L17.7297 7.37082C18.2353 7.82587 18.524 8.47414 18.524 9.15438V15.2843C18.524 16.6095 17.4497 17.6838 16.1245 17.6838H13.725L13.7205 17.6838H7.33066L7.3262 17.6838H4.92666C3.60144 17.6838 2.52713 16.6095 2.52713 15.2843V9.15438Z" fill="#6889FF"/>
<path d="M8.12604 12.8848C8.12604 12.0014 8.84224 11.2852 9.72573 11.2852H11.3254C12.2089 11.2852 12.9251 12.0014 12.9251 12.8848V17.6839H8.12604V12.8848Z" fill="#B5B2FF"/>
</svg>
