<svg width="21" height="21" viewBox="0 0 21 21" fill="none" xmlns="http://www.w3.org/2000/svg">
<path fill-rule="evenodd" clip-rule="evenodd" d="M1.67532 9.36873C1.67532 8.6885 1.96404 8.04022 2.46965 7.58517L8.06857 2.54615C8.98112 1.72485 10.3664 1.72485 11.279 2.54615L16.8779 7.58517C17.3835 8.04022 17.6722 8.6885 17.6722 9.36873V15.4987C17.6722 16.8239 16.5979 17.8982 15.2727 17.8982H12.8731L12.8687 17.8982H6.47886L6.47439 17.8982H4.07486C2.74963 17.8982 1.67532 16.8239 1.67532 15.4987V9.36873Z" fill="#5B5966"/>
<path d="M7.27417 13.0992C7.27417 12.2157 7.99038 11.4995 8.87386 11.4995H10.4735C11.357 11.4995 12.0732 12.2157 12.0732 13.0992V17.8983H7.27417V13.0992Z" fill="#8E8C95"/>
</svg>
